<svg xmlns="http://www.w3.org/2000/svg" width="183" height="28" fill="none" viewBox="0 0 183 28">
    <path fill="#102736" fill-rule="evenodd" d="M21.947.963L14.67 21.859 7.353.963H0V28h2.674V3.125L11.438 28h3.75l8.728-24.797V28h5.124V.963h-7.093zM45.016 19.306v-1.633c-5.202.418-7.653 1.86-7.653 4.48 0 2.126 1.395 3.303 3.167 3.303 2.337 0 4.486-2.278 4.486-6.15zm.227 5.125c-1.282 2.05-3.356 3.531-6.372 3.531-3.204 0-6.56-1.518-6.56-5.43 0-3.644 2.715-5.352 9.237-6.453l3.468-.57v-1.1c0-3.228-1.282-4.595-3.62-4.595-2.299 0-3.505 1.557-3.694 4.29h-4.75c.415-3.72 3.959-6.188 8.445-6.188 5.278 0 8.52 2.468 8.483 7.555l-.038 8.163c0 .645.075 1.709.188 3.948h-4.675l-.112-3.15z" clip-rule="evenodd"/>
    <mask id="0fvvppxlla" width="183" height="28" x="0" y="0" maskUnits="userSpaceOnUse">
        <path fill="#fff" fill-rule="evenodd" d="M0 28h182.204V0H0v28z" clip-rule="evenodd"/>
    </mask>
    <g mask="url(#0fvvppxlla)">
        <path fill="#102736" fill-rule="evenodd" d="M53.59 27.582h4.976V8.372H53.59v19.21zM67.456 27.582h-4.977V8.372h4.826v3.379c1.093-2.354 3.28-3.797 6.22-3.797 3.883 0 6.711 1.936 6.711 7.67v11.958H75.26V15.13c0-3.378-1.207-4.707-3.205-4.707-2.262 0-4.6 2.316-4.6 8.01v9.15zM82.184 19.496h5.051c.227 4.138 2.451 6.302 6.032 6.302 3.205 0 5.844-1.632 5.844-4.366 0-2.506-1.96-3.759-5.278-4.67l-2.79-.76C85.765 14.56 83.39 12.587 83.39 8.6c0-4.821 4.712-8.162 9.953-8.162 5.692 0 9.764 2.581 10.216 7.327h-5.014c-.188-3.303-1.998-5.163-5.202-5.163-3.092 0-5.316 1.822-5.316 4.366 0 2.05 1.357 3.265 4.448 4.1l3.28.873c4.977 1.33 8.106 3.19 8.106 7.67 0 5.505-5.316 8.352-10.594 8.352-6.22 0-10.593-2.81-11.083-8.466zM107.782 23.027V10.42h-3.204v-2.05h3.204V3.467l4.863-2.164h.114V8.37h4.561v2.05h-4.561l-.038 12.757c0 1.899.754 2.354 2.186 2.354h2.413v2.012c-.905.038-2.111.076-4.109.076-3.657 0-5.429-.91-5.429-4.593zM124.365 27.582h-4.976V8.372h4.788v4.366c.226-.722.565-1.443 1.094-2.164 1.055-1.481 2.299-2.278 4.222-2.278.452 0 .98.038 1.319.075v4.101c-.98-.114-1.847-.19-2.827-.19-1.81 0-3.62.835-3.62 4.594v10.706zM172.666 23.027V10.42h-3.205v-2.05h3.205V3.467l4.863-2.164h.113V8.37h4.562v2.05h-4.562l-.037 12.757c0 1.899.754 2.354 2.186 2.354h2.413v2.012c-.905.038-2.111.076-4.11.076-3.656 0-5.428-.91-5.428-4.593zM136.16 16.902c.011-2.013.189-4.57 1.733-6.079.654-.638 1.526-.933 2.428-.933 2.48 0 3.669 1.934 3.827 5.107l-7.883 3.672c-.024-.437-.105-1.23-.105-1.767zm10.758 4.72c-.679 2.43-2.526 4.062-5.278 4.062-2.602 0-4.438-1.822-5.11-4.88l9.212-4.29.003.001 3.644-1.697c-1.031-4.397-4.777-6.864-9.068-6.864-4.788 0-9.576 3.683-9.576 9.985 0 6.72 4.863 10.06 10.141 10.06 4.599 0 7.917-2.467 8.784-6.377h-2.752zM156.187 17.977v-2.05c.151-3.835 1.47-6.037 4.072-6.037 2.48 0 3.669 1.934 3.827 5.107l-7.883 3.672c-.01-.214-.016-.432-.016-.654v-.038zm10.67 3.645c-.679 2.43-2.526 4.062-5.279 4.062-2.602 0-4.438-1.822-5.109-4.88l9.211-4.29.004.001 3.643-1.697c-1.031-4.397-4.776-6.864-9.068-6.864-4.788 0-9.576 3.683-9.576 9.985 0 6.72 4.863 10.06 10.141 10.06 4.6 0 7.917-2.467 8.784-6.377h-2.751zM56.078 6.09l-3.886-3.045L56.078 0l3.886 3.045-3.886 3.044z" clip-rule="evenodd"/>
    </g>
</svg>