<svg xmlns="http://www.w3.org/2000/svg" height="800" width="1200" viewBox="-17.365665 -6.283725 150.50243 37.70235"><path d="M12.206 10.9364c0-5.9864-1.0048-8.468-3.7673-8.468-2.4363 0-3.667 1.7397-3.667 7.7774 0 5.9606.9544 8.4167 3.7674 8.4167 2.4864 0 3.6668-1.7142 3.6668-7.7261M0 10.783c0-6.7285 4.5457-9.389 8.5895-9.389 4.3197 0 8.3882 2.6352 8.3882 8.9796 0 6.7794-4.5457 9.3633-8.5895 9.3633C4.0687 19.737 0 16.923 0 10.783m37.4325.4348l4.2946-.2303c0-3.0954-.4015-4.2211-1.9086-4.2211-1.281 0-2.2856 1.228-2.386 4.4514m-3.9681 1.5094c0-4.4514 3.2396-6.933 6.5549-6.933 3.4255 0 5.5752 1.724 5.6975 6.2341.0025.0877-.0675.1617-.154.1617h-7.9726c-.0864 0-.1563.0739-.1542.1618.1124 4.0636 1.6625 5.185 4.2158 5.185 1.2463 0 2.251-.2949 3.092-.6748a.15.15 0 01.178.0411l.3339.4002c.0504.0603.0498.1496-.0035.207-.9162.9842-2.7813 2.2267-5.233 2.2267-4.37 0-6.5548-2.6607-6.5548-7.0098m51.7174.2047c0-5.1678-.9793-6.14-2.6873-6.14-1.5824 0-2.5115 1.177-2.5115 5.5772 0 5.2446.8287 6.37 2.662 6.37 1.5073 0 2.5368-.8953 2.5368-5.8072m-9.418-.1278c0-4.9122 3.4154-7.0099 6.8061-7.0099 3.6417 0 6.8313 2.2257 6.8313 6.8818 0 4.912-3.3654 7.0612-6.8313 7.0612-3.6417 0-6.8062-2.2517-6.8062-6.9331m24.3979.1278c0-5.1678-.9793-6.14-2.6873-6.14-1.5824 0-2.5115 1.177-2.5115 5.5772 0 5.2446.829 6.37 2.6623 6.37 1.507 0 2.5365-.8953 2.5365-5.8072m-9.4182-.1278c0-4.9122 3.4156-7.0099 6.8062-7.0099 3.6417 0 6.8313 2.2257 6.8313 6.8818 0 4.912-3.3653 7.0612-6.8313 7.0612-3.6415 0-6.8062-2.2517-6.8062-6.9331m-34.702-7.0099c-1.8334 0-3.491.8444-4.822 1.8164h-.1006l.0494-1.613c.004-.1237-.1007-.2218-.2212-.208l-3.5145.4058c-.1032.0118-.1814.1007-.1814.2066v12.8251c0 .1121.0892.2028.199.2028h3.5952c.1098 0 .199-.0907.199-.2028V8.5061c.5525-.128 1.4567-.3326 2.336-.3326 1.1802 0 1.7329.4861 1.7329 2.0466v9.007c0 .1121.0892.2028.199.2028h3.6203c.1098 0 .1992-.0907.1992-.2028V9.2226c0-2.3026-1.1553-3.4284-3.2903-3.4284M70.1063 17.153c-.4019.1536-1.08.563-2.1097.563-1.9088 0-2.9134-1.3049-2.9134-5.3213 0-4.2214 1.2557-5.5772 3.064-5.5772.9294 0 1.5321.5372 1.9591 1.0744zm3.9932-13.8659c0-1.3223.0443-2.5373.0676-3.036.0068-.1459-.1149-.263-.2575-.2501l-3.6172.4184c-.1054.0097-.186.0995-.186.2075v3.5813c0 .9208.0501 1.8674.0501 1.8674-.5274-.1536-1.2306-.2814-1.9086-.2814-3.9181 0-7.2838 2.1235-7.2838 7.4448 0 4.656 2.4362 6.498 4.9227 6.498 1.758 0 3.1645-.7163 4.2446-1.6627h.1004l-.051 1.412c-.0058.1504.1232.2694.2693.2483l3.4458-.3919c.1168-.0165.2036-.1183.2036-.2385zm39.6152 2.5071c-1.4567 0-2.8883 1.1258-3.6666 1.97h-.1006l.0488-1.7192c.004-.1463-.1199-.2627-.2628-.2464l-3.4724.397c-.1034.0118-.1814.1007-.1814.2068v12.7868c0 .133.1058.2407.2363.2407h3.5204c.1305 0 .2367-.1078.2367-.2407V8.8132c.3515-.3327.9291-.6654 1.381-.6654.2263 0 .377.0513.5276.3327.4772.793.855 1.2514 1.9339 1.2514.9797 0 1.8555-.791 1.8555-2.0189 0-1.2537-.851-1.9188-2.0565-1.9188M24.8302 18.7136c-.854 0-1.532-.3838-1.9843-.921V8.4804c.402-.1534 1.0299-.4605 2.0344-.4605 1.9088 0 2.9889 1.279 2.9889 4.9375 0 4.6818-1.055 5.7562-3.039 5.7562m2.2352-12.9192c-1.7582 0-3.1643.8441-4.2195 1.7652h-.1255l.0485-1.5308c.0044-.1395-.1137-.2506-.2496-.2348l-3.4852.4013c-.1034.012-.1814.101-.1814.207v18.5244c0 .124.106.2208.2272.2069l3.5847-.4126c.1033-.0118.1813-.1008.1813-.2068v-3.4724c0-.8953-.025-1.5605-.025-1.5605.5526.1534 1.3815.2556 1.9089.2556 4.1942 0 7.258-2.328 7.258-7.6492 0-4.6817-2.5365-6.2933-4.9224-6.2933" fill="#147BD1" fill-rule="evenodd"/></svg>